<svg width="88" height="88" viewBox="0 0 88 88" fill="none" xmlns="http://www.w3.org/2000/svg">
<path d="M79.2 0H8.8C3.9399 0 0 3.9399 0 8.8V79.2C0 84.0601 3.9399 88 8.8 88H79.2C84.0601 88 88 84.0601 88 79.2V8.8C88 3.9399 84.0601 0 79.2 0Z" fill="#4479A1"/>
<path d="M29.3803 59.9141H27.2072C27.1303 56.2009 26.9188 52.7099 26.5727 49.4386H26.5534L23.2448 59.9141H21.5902L18.3013 49.4386H18.2824C18.0385 52.5793 17.8847 56.0712 17.821 59.9141H15.8401C15.9677 55.241 16.2886 50.8598 16.8013 46.7703H19.4947L22.6295 56.4283H22.6488L25.8029 46.7703H28.3801C28.9445 51.5603 29.2779 55.942 29.3803 59.9141ZM38.8049 50.2165C37.9202 55.0773 36.7528 58.6091 35.3039 60.8137C34.1752 62.5106 32.9385 63.36 31.5917 63.36C31.2327 63.36 30.7897 63.2504 30.2647 63.0327V61.8607C30.5213 61.8982 30.8224 61.9193 31.1685 61.9193C31.7975 61.9193 32.3031 61.7442 32.6886 61.393C33.1497 60.9654 33.3802 60.4847 33.3802 59.9528C33.3802 59.588 33.2006 58.8425 32.8419 57.7134L30.4571 50.2162H32.5919L34.3037 55.8234C34.6883 57.0965 34.8488 57.9853 34.7846 58.4917C35.7205 55.961 36.3744 53.2017 36.7468 50.2156H38.8049V50.2165Z" fill="white"/>
<path d="M67.7318 59.9141H61.5588V46.7702H63.6354V58.2961H67.7318V59.9141ZM59.9429 60.2318L57.556 59.0392C57.7677 58.8634 57.9701 58.6728 58.1523 58.4522C59.1669 57.2458 59.6729 55.4617 59.6729 53.0983C59.6729 48.7499 57.9872 46.5747 54.6149 46.5747C52.9612 46.5747 51.6711 47.1265 50.7485 48.2305C49.7347 49.4379 49.2287 51.2157 49.2287 53.566C49.2287 55.8765 49.6772 57.5714 50.5746 58.6465C51.3956 59.6204 52.6331 60.1081 54.288 60.1081C54.9054 60.1081 55.4718 60.0315 55.988 59.8771L59.0955 61.7086L59.9429 60.2318ZM52.2107 57.284C51.685 56.4279 51.4221 55.053 51.4221 53.1575C51.4221 49.848 52.4152 48.1914 54.4035 48.1914C55.4429 48.1914 56.2047 48.5876 56.6918 49.3782C57.2167 50.2357 57.4808 51.5983 57.4808 53.4674C57.4808 56.804 56.4868 58.4727 54.4998 58.4727C53.46 58.473 52.6982 58.0781 52.2107 57.284ZM48.3237 56.2709C48.3237 57.3857 47.9198 58.3 47.1127 59.0163C46.3049 59.7297 45.2214 60.0871 43.8637 60.0871C42.5939 60.0871 41.3626 59.6765 40.1709 58.8595L40.729 57.7308C41.7544 58.2507 42.6828 58.5091 43.5165 58.5091C44.2988 58.5091 44.9102 58.3336 45.3536 57.9855C45.7966 57.636 46.0607 57.1458 46.0607 56.5261C46.0607 55.7452 45.5229 55.0776 44.5361 54.5186C43.626 54.0128 41.8061 52.9551 41.8061 52.9551C40.8196 52.2273 40.3258 51.446 40.3258 50.1588C40.3258 49.0934 40.694 48.2335 41.4311 47.5791C42.1688 46.9225 43.1208 46.5951 44.2879 46.5951C45.493 46.5951 46.5886 46.922 47.5754 47.5689L47.0749 48.6981C46.2309 48.3351 45.3977 48.1536 44.5758 48.1536C43.9104 48.1536 43.3963 48.3155 43.039 48.6408C42.6787 48.9646 42.4564 49.3791 42.4564 49.8876C42.4564 50.6646 43.0057 51.3406 44.0195 51.9107C44.9417 52.4174 46.807 53.4933 46.807 53.4933C47.8186 54.2198 48.3237 54.994 48.3237 56.2709Z" fill="#F8981D"/>
<path d="M70.3389 42.3679C69.0833 42.3356 68.111 42.4635 67.2951 42.8129C67.0596 42.9083 66.6851 42.9083 66.6524 43.2096C66.7794 43.3372 66.7942 43.5429 66.9047 43.7189C67.0927 44.0364 67.4208 44.4636 67.7201 44.6864C68.0489 44.9414 68.3791 45.194 68.7251 45.4163C69.3353 45.7985 70.0268 46.0208 70.6215 46.4017C70.9679 46.6233 71.3123 46.9098 71.6592 47.1483C71.8296 47.2754 71.9389 47.4814 72.1601 47.561V47.5126C72.0492 47.3697 72.0177 47.1631 71.9089 47.0041L71.4378 46.5441C70.9827 45.9253 70.417 45.3849 69.8068 44.9411C69.3045 44.5908 68.2061 44.1146 68.0023 43.5288L67.9704 43.4965C68.3156 43.4637 68.7251 43.3372 69.053 43.2398C69.5868 43.0973 70.0734 43.1297 70.621 42.9873C70.873 42.9234 71.1229 42.8435 71.3757 42.765V42.6217C71.0918 42.3356 70.8894 41.9556 70.5909 41.6851C69.792 40.9867 68.9118 40.3035 68.0023 39.7318C67.5153 39.4134 66.8887 39.2084 66.3701 38.9377C66.1831 38.842 65.8683 38.7948 65.7583 38.6359C65.4769 38.2863 65.3186 37.8264 65.1145 37.4128C64.6609 36.5401 64.2204 35.5717 63.8291 34.6488C63.546 34.0298 63.3738 33.4117 63.0287 32.8391C61.412 30.1396 59.6562 28.5046 56.9578 26.8998C56.3778 26.5658 55.6879 26.4234 54.9508 26.2481L53.7737 26.1853C53.5228 26.0739 53.2711 25.7717 53.052 25.6288C52.1567 25.0575 49.8516 23.8191 49.1932 25.4542C48.769 26.4875 49.8206 27.5035 50.1818 28.0276C50.4484 28.3916 50.7939 28.8056 50.9804 29.2188C51.0908 29.4888 51.1219 29.7753 51.2323 30.0606C51.4834 30.7595 51.7182 31.5369 52.0482 32.1892C52.2205 32.5214 52.4082 32.871 52.6282 33.1719C52.7542 33.3479 52.9735 33.4257 53.0213 33.7126C52.8026 34.0289 52.7853 34.5064 52.6597 34.9034C52.0954 36.6977 52.3158 38.9206 53.1158 40.2394C53.3661 40.6365 53.9631 41.5105 54.762 41.1754C55.4691 40.8897 55.3125 39.9847 55.5156 39.191C55.5622 38.9993 55.5316 38.8735 55.6258 38.7476V38.7786C55.8446 39.223 56.0654 39.651 56.2682 40.0965C56.7548 40.8741 57.6023 41.6844 58.3082 42.2229C58.6841 42.5103 58.9818 43.0017 59.4526 43.1772V43.1297H59.4214C59.3262 42.9873 59.1868 42.9234 59.0617 42.8129C58.7785 42.5269 58.4654 42.1773 58.2457 41.8604C57.588 40.9705 57.006 39.9856 56.4894 38.9692C56.2367 38.4761 56.0188 37.937 55.8152 37.4447C55.7201 37.2546 55.7201 36.9681 55.5628 36.8725C55.3268 37.2215 54.9829 37.5237 54.8106 37.9514C54.5121 38.6353 54.4809 39.4766 54.37 40.3515L54.3084 40.3821C53.8086 40.2551 53.6349 39.7318 53.445 39.2876C52.975 38.1593 52.8962 36.3484 53.3038 35.0467C53.4131 34.7137 53.8855 33.6654 53.697 33.3483C53.6025 33.0443 53.2883 32.8713 53.1162 32.632C52.9138 32.331 52.692 31.9502 52.5509 31.6161C52.1748 30.7271 51.9852 29.7422 51.5801 28.8536C51.3907 28.4397 51.0619 28.0111 50.7956 27.6297C50.4966 27.2013 50.1678 26.8995 49.9315 26.3914C49.8533 26.2168 49.7437 25.9311 49.8694 25.741C49.9 25.6134 49.9637 25.5659 50.0888 25.5341C50.2921 25.3602 50.8729 25.5812 51.0765 25.6768C51.6582 25.9149 52.1445 26.1372 52.6299 26.4706C52.8496 26.6298 53.085 26.9317 53.3668 27.0112H53.697C54.1979 27.1218 54.7627 27.0419 55.2344 27.1855C56.0654 27.456 56.8184 27.8525 57.4935 28.2806C59.5483 29.5997 61.2426 31.4741 62.3866 33.7126C62.5743 34.0775 62.6542 34.4115 62.8254 34.792C63.1559 35.5708 63.5644 36.3649 63.8925 37.1272C64.2222 37.8733 64.5363 38.635 65.0069 39.2549C65.2417 39.588 66.1849 39.7628 66.6078 39.9376C66.9206 40.0799 67.4077 40.2067 67.6899 40.3813C68.2237 40.7142 68.7554 41.0963 69.2572 41.4624C69.5069 41.6529 70.2922 42.0499 70.3389 42.3679ZM54.3369 28.5671C54.1203 28.5648 53.9045 28.5917 53.6949 28.6472V28.679H53.7252C53.8515 28.9328 54.0712 29.1088 54.2278 29.3302C54.3542 29.5849 54.4638 29.8374 54.5876 30.0916L54.6178 30.0601C54.8392 29.9015 54.9492 29.6474 54.9492 29.266C54.8538 29.1539 54.8392 29.044 54.7599 28.9328C54.6675 28.7737 54.4638 28.6947 54.3369 28.5671Z" fill="white"/>
<path d="M71.8328 59.912H72.1579V58.3018H71.6704L71.2726 59.4007L70.8405 58.3018H70.3711V59.912H70.6781V58.6869H70.6953L71.148 59.912H71.3819L71.8328 58.6869V59.912ZM69.2146 59.912H69.5585V58.5746H70.0088V58.3013H68.7456V58.5746H69.2138L69.2146 59.912Z" fill="#F8981D"/>
</svg>
